<?xml version="1.0" encoding="utf-8"?>
<!-- Generator: Adobe Illustrator 19.0.1, SVG Export Plug-In . SVG Version: 6.00 Build 0)  -->
<svg version="1.1" id="Layer_1" xmlns="http://www.w3.org/2000/svg" xmlns:xlink="http://www.w3.org/1999/xlink" x="0px" y="0px"
	 viewBox="0 0 581.1 581.1" style="enable-background:new 0 0 581.1 581.1;" xml:space="preserve">
<style type="text/css">
	.st0{fill:#FFFFFF;}
	.st1{fill:none;}
	.st2{font-family:'MyriadPro-Regular';}
	.st3{font-size:200px;}
</style>
<path class="st0" d="M306.3,465.5c-5.1-2.8-10.2-5.8-15.4-8.5c-1.6-0.8-3.5-1.4-5.3-1.6c-6.2-0.4-12.4-0.2-18.6-0.8
	c-7.5-0.7-15.7-8.9-16-16.5c-0.5-14.4-0.8-28.7-0.5-43.1c0.2-10.3,6.4-17.7,15.7-20c1.6-0.4,3.3-0.3,5-0.4
	c7.7-0.2,15.5,0.1,23.1-0.8c3.7-0.4,7.9-2.3,10.6-4.8c5.5-5,10.4-10.7,14.9-16.6c4.4-5.7,3.9-12.7,3.3-19.4
	c-0.4-4.4-1.3-8.9-0.9-13.3c0.8-8.1,6.4-12.8,13.6-15.4c7-2.6,13-0.3,18,4.8c8.5,8.6,12.8,19.5,15.8,30.8c1.2,4.3,2.1,8.8,2.5,13.3
	c0.3,3.4-0.3,6.9-0.6,10.8c5.4,0,10.4-0.2,15.5,0.1c4.4,0.2,8.9,0.4,13,1.7c7,2.1,11.1,7.3,12.3,14.6c0.1,0.5,0.4,0.9,0.7,1.4
	c0,1.5,0,3,0,4.4c-0.2,0.4-0.6,0.8-0.7,1.3c-0.9,5.8-1.7,11.6-2.7,17.4c-2.2,13.3-5,26.5-6.7,39.9c-1.1,8.9-5.8,14.2-13.6,17.2
	c-4.6,1.8-9.6,2.5-14.4,3.7C352,465.5,329.1,465.5,306.3,465.5z M290.9,384.3c0,17.4,0.4,34.3-0.2,51.2c-0.3,7.4,1.3,12.4,8.4,15.2
	c4.1,1.6,7.3,4.9,12.4,4.8c20.2-0.3,40.4-0.1,60.6-0.2c3.5,0,7.2-0.4,10.5-1.3c4.8-1.4,9.4-3.5,10.4-9.2c1.6-9.2,3-18.4,4.6-27.5
	c1.6-9.7,3.1-19.4,5-29.1c1.2-6.6-0.5-11.7-5.4-13.6c-2.2-0.8-4.7-1-7.1-1c-6.1-0.2-12.3-0.3-18.4-0.1c-6.4,0.3-9.5-3-9.6-10.1
	c-0.1-4.2,0.3-8.4-0.1-12.5c-1.2-12.4-6-23.6-13.4-33.5c-1.5-2.1-4.4-4-6.9-4.3c-6.1-0.7-10.9,5.3-10.2,11.5c0.3,2.2,1,4.3,1.1,6.5
	c0.1,6.3,0.9,12.7-1.2,18.8c-4.1,12-12.9,20.2-22.3,28C304,382.2,297.7,383.5,290.9,384.3z"/>
<g>
	<path class="st0" d="M107,168.7c19.5,0,39,0,58.4,0c8.9,0,12.5,3.6,12.5,12.5c0,32.1,0,64.2,0,96.2c0,9.1-4,13.1-13,13.1
		c-39.1,0-78.1,0-117.2,0c-7.2,0-12-4.7-12-12c0-32.6,0-65.2,0-97.8c0-7.7,4.2-12,11.9-12C67.4,168.7,87.2,168.7,107,168.7z
		 M46,280.1c40.7,0,81.1,0,121.6,0c0-34,0-67.7,0-101.2c-40.7,0-81.1,0-121.6,0C46,212.7,46,246.3,46,280.1z"/>
	<path class="st0" d="M92.3,229.3c-8-7.8-15.5-15.2-23.2-22.7c2.6-2.5,4.9-4.6,7-6.6c9.8,9.9,19.7,19.9,29.4,29.7
		c-9.4,9.4-19.3,19.2-29.4,29.2c-2-2.1-4.3-4.4-6.8-7C76.7,244.6,84.3,237.2,92.3,229.3z"/>
	<path class="st0" d="M147.3,259.7c-13.4,0-26.7,0-40.2,0c0-3.2,0-6.3,0-9.6c13.4,0,26.7,0,40.2,0
		C147.3,253.2,147.3,256.3,147.3,259.7z"/>
</g>
<g>
	<path class="st0" d="M435,160.5c6,2,12.4,3.2,17.9,6c18.7,9.7,29,25.2,30.5,46.4c0.1,1.2,1.2,2.6,2.2,3.3
		c13,8.9,18.5,23.1,15.7,38.4c-2.7,14.6-14.9,26.7-29.3,28.9c-5.8,0.9-11.8,0.7-17.7,0.8c-6.1,0.1-12.2,0-18.6,0c0-4.1,0-7.9,0-12
		c1-0.1,1.9-0.2,2.8-0.2c9.2,0,18.4,0.1,27.6,0c11.4-0.1,22-10,23.6-21.1c2-14.3-7.5-25.3-18.2-28.1c1.1-25-9.3-42.4-34.2-49.3
		c-10.9-3-21.4-0.8-31.2,4.8c-9.6,5.6-16,13.9-19.6,24c-4.1-1.6-7.8-3.5-11.8-4.4c-14.8-3.3-29.7,6.3-33,21.1
		c-0.5,2.1-1.1,2.9-3.3,3.2c-13.2,2.1-22.3,12.3-22.2,24.8c0.1,13.4,11.2,24.7,24.6,24.9c8.5,0.1,16.9,0,25.4,0c1.5,0,2.9,0,4.6,0
		c0,4.1,0,7.9,0,12.2c-2.9,0-5.6,0-8.3,0c-6.9,0-13.8,0-20.6,0c-19.1,0-34.5-13.3-37.3-32.2c-0.1-0.5-0.4-0.9-0.6-1.4
		c0-2.3,0-4.7,0-7c0.2-0.4,0.5-0.7,0.5-1.1c2.2-15.2,10.8-25.2,25-30.8c1.1-0.4,2.2-1.6,2.7-2.7c8.7-18,26-26.8,45.4-22.9
		c2.3,0.5,3.4-0.2,4.6-2c4.1-5.9,9.2-10.7,15.1-14.7c7.9-5.3,16.7-7.9,26-9.1C427.4,160.5,431.2,160.5,435,160.5z"/>
	<path class="st0" d="M415.1,258.1c0,1.5,0,2.6,0,3.8c0,10.7,0,21.4,0,32c0,4.2-0.3,4.5-4.5,4.5c-5.2,0-10.4-0.1-15.5,0
		c-2.7,0.1-3.5-1-3.5-3.6c0.1-12.1,0-24.1,0-36.5c-1.2-0.1-2.3-0.2-3.4-0.2c-4.5,0-9.1,0-13.6-0.1c-0.8,0-1.9-0.6-2.3-1.2
		c-0.2-0.4,0.4-1.5,0.9-2.2c1.3-1.6,2.6-3,4-4.5c8-8.3,16-16.6,23.9-24.9c1.4-1.4,2.5-1.5,4,0c9.4,9.8,18.8,19.4,28.2,29.2
		c0.6,0.6,1.2,2,1,2.3c-0.6,0.7-1.7,1.2-2.6,1.3c-4.1,0.1-8.2,0.1-12.4,0.1C417.9,258.1,416.7,258.1,415.1,258.1z"/>
</g>
<rect x="184.9" y="187.6" class="st1" width="112.2" height="147.4"/>
<text transform="matrix(1 0 0 1 184.9051 329.5553)" class="st0 st2 st3">Σ</text>
<g>
	<path class="st0" d="M141.6,305.9c4.5,0.9,7.4,4,10.5,7.1c24.4,24.4,48.8,48.8,73.2,73.2c6.3,6.3,6.3,12.5,0,18.8
		c-25.2,25.2-50.4,50.4-75.6,75.5c-5.7,5.7-12.2,5.7-17.9,0c-24.8-24.8-49.6-49.6-74.4-74.4c-2.6-2.6-5.2-5.2-6.2-8.9
		c0-1.4,0-2.8,0-4.2c1.4-2.2,2.5-4.8,4.3-6.6c16.9-17.1,34-34.1,51-51.1c0.5-0.5,1.1-1,1.8-1.6c6.5,6.5,12.8,12.8,19,19.2
		c0.5,0.5,0.7,1.7,0.5,2.4c-1.6,6.2,0.7,12.3,6,15.5c1.6,1,2,2.1,2,3.8c-0.1,14.5-0.1,29,0,43.5c0,1.8-0.4,2.9-2.1,3.9
		c-5.3,3.2-7.6,9.4-5.9,15.3c1.7,5.9,6.9,9.9,13,10c6,0.1,11.3-3.7,13.2-9.4c2-5.9,0-12-5.1-15.5c-1.4-1-1.7-2-1.7-3.5
		c0-14.4,0-28.7,0-43.1c0-0.7,0.1-1.5,0.2-2.5c0.6,0.4,0.9,0.6,1.1,0.9c5.3,5.3,10.6,10.5,15.8,15.8c0.5,0.6,0.8,1.8,0.6,2.6
		c-1.5,6.3,1,12.4,6.4,15.6c5.3,3.1,11.9,2.3,16.3-1.8c4.5-4.2,5.7-10.8,2.9-16.2c-2.8-5.6-8.8-8.5-15.1-7.4c-0.9,0.2-2.3-0.3-3-0.9
		c-5.7-5.6-11.4-11.2-17-17c-0.7-0.7-1.1-2.1-0.9-3c1.7-10-6.3-18-16.3-16.3c-0.9,0.2-2.2-0.3-2.8-0.9c-3.3-3.1-6.4-6.3-9.5-9.4
		c-3.2-3.2-6.4-6.4-9.8-9.7c4.3-4.3,8.6-8.4,12.7-12.6c3-3.1,6-6.2,10.5-7.1C140,305.9,140.8,305.9,141.6,305.9z"/>
</g>
<g>
	<path class="st0" d="M347.8,91.2c0,1.7,0,2.7,0,3.8c0,5.1,0,10.3-0.2,15.4c-0.4,9.8-10.6,18.8-19.4,18.5c-9.7-0.3-19.4,0.3-29,0.4
		c-8.2,0.1-15,6.8-15.1,15.1c-0.1,9.7-0.1,19.4-0.1,29c0,8.9,4.1,14.6,12.6,17c12.6,3.5,25.2,2.8,37.6-1.3c3.5-1.2,6.6-3.6,7.1-7.3
		c0.8-6.7,0.8-13.5,1.2-20.7c-11.2,0-21.7,0-32.2,0c0-2.1,0-3.9,0-5.9c1.3,0,2.5,0,3.6,0c14.5,0,29,0,43.6,0c9.2,0,16.5-5,19.2-13.9
		c3.9-12.7,3.7-25.5-0.7-38.1c-1.9-5.3-5.2-10-11-11C359.5,91.3,353.8,91.5,347.8,91.2z"/>
	<path class="st0" d="M315.5,59.3c3.8,0.6,7.6,1.1,11.3,1.8c5.4,1,10,3.5,12.8,8.3c1.3,2.1,2.3,4.7,2.3,7.2
		c0.3,10.8,0.3,21.6,0.2,32.3c-0.1,7.1-6.9,13.8-14,13.9c-9.4,0.2-18.8,0.8-28.2,0.5c-12.8-0.4-22.3,10.6-21.6,21.6
		c0.3,5.2,0.1,10.4,0.1,16.2c-5.8-0.3-11.3,0-16.6-0.9c-6-1-9.5-5.5-11.5-10.9c-4.7-12.8-5-25.7-0.7-38.6
		c2.8-8.5,9.5-13.3,18.5-13.4c14.1-0.2,28.3-0.2,42.4-0.3c1.6,0,3.1,0,5,0c0-1.9,0-3.6,0-5.7c-10.4,0-20.9,0-31.8,0
		c0-1.5,0-2.6,0-3.7c0.1-4.3,0.2-8.7,0.4-13c0.3-6,2.9-10,8.8-11.6c4.9-1.4,10-2,15.1-2.9c1.9-0.3,3.9-0.4,5.8-0.6
		C314.3,59.3,314.9,59.3,315.5,59.3z M297.2,72.3c-3.6-0.1-6.1,2.2-6.1,5.6c-0.1,3.2,2.4,5.8,5.7,5.9c3.3,0.1,6.2-2.6,6.2-5.8
		C303,74.9,300.5,72.4,297.2,72.3z"/>
	<path class="st0" d="M347.8,91.2c6,0.3,11.7,0.1,17.1,1c5.8,1,9.2,5.7,11,11c4.4,12.6,4.7,25.4,0.7,38.1
		c-2.7,8.8-10,13.9-19.2,13.9c-14.5,0-29,0-43.6,0c-1.2,0-2.3,0-3.6,0c0,2.1,0,3.8,0,5.9c10.5,0,21,0,32.2,0
		c-0.4,7.2-0.4,14-1.2,20.7c-0.5,3.8-3.6,6.2-7.1,7.3c-12.4,4.1-25,4.8-37.6,1.3c-8.6-2.4-12.6-8.1-12.6-17c0-9.7,0-19.4,0.1-29
		c0.1-8.3,6.9-15,15.1-15.1c9.7-0.1,19.4-0.7,29-0.4c8.8,0.3,19-8.7,19.4-18.5c0.2-5.1,0.1-10.3,0.2-15.4
		C347.9,93.9,347.8,92.9,347.8,91.2z M334.9,174.1c0-3.2-2.6-5.7-5.8-5.8c-3.2,0-6,2.9-5.9,6.1c0.1,3.1,2.8,5.8,5.9,5.8
		C332.3,180.3,335,177.5,334.9,174.1z"/>
</g>
<g>
	<path class="st0" d="M149.2,27.6c19.8,0,39.7,0,59.5,0c2.1,1.7,3.3,3.8,3.3,6.7c-0.1,39.6,0,79.2-0.1,118.7c0,5-1.8,6.8-6.7,6.8
		c-17.3,0-34.6,0-51.9,0c-5.8,0-7.4-1.6-7.4-7.5c0-39.1,0-78.3-0.1-117.4C145.9,31.8,146.7,29.4,149.2,27.6z M166.6,33
		c0.9,7.7,6.1,12.6,12.8,12.3c6.7-0.4,11.5-5.3,11.7-12.3C183,33,174.9,33,166.6,33z"/>
	<path class="st0" d="M140.7,111c0,5,0,9.4,0,14.3c-3.4,0-6.8,0.3-10.1-0.1c-3.2-0.4-5.4-4-5.2-7.4c0.2-3.4,2.7-6.4,6.1-6.7
		C134.5,110.8,137.4,111,140.7,111z"/>
	<path class="st0" d="M140.6,135.4c0,4.9,0,9.5,0,14.4c-3.1,0-6.2,0.3-9.2-0.1c-3.8-0.4-6.3-3.9-6-7.8c0.3-3.7,3.1-6.5,6.9-6.6
		C135.1,135.3,137.8,135.4,140.6,135.4z"/>
	<path class="st0" d="M140.6,38.3c0,4.7,0,9.2,0,14.2c-3.2,0-6.3,0.3-9.4-0.1c-3.7-0.5-6-3.9-5.8-7.7c0.2-3.7,3-6.5,6.8-6.6
		c2.3-0.1,4.6,0,6.9,0C139.6,38.1,140,38.2,140.6,38.3z"/>
	<path class="st0" d="M140.6,62.4c0,5.1,0,9.7,0,14.5c-3.1,0-6.1,0.3-9-0.1c-4-0.5-6.4-3.8-6.2-7.6c0.2-3.7,2.8-6.5,6.8-6.7
		C134.9,62.3,137.6,62.4,140.6,62.4z"/>
	<path class="st0" d="M217.3,62.5c3.1,0,6.1-0.2,9,0.1c3.5,0.3,6,3.1,6.2,6.6c0.2,3.5-1.7,6.7-5.2,7.4c-3.2,0.6-6.5,0.5-10,0.7
		C217.3,72.1,217.3,67.5,217.3,62.5z"/>
	<path class="st0" d="M140.6,86.6c0,5,0,9.6,0,14.6c-2.9,0-5.6,0.1-8.3,0c-4.1-0.2-6.8-3.1-6.9-6.9c-0.1-4,2.6-7.2,6.7-7.6
		C134.8,86.4,137.6,86.6,140.6,86.6z"/>
	<path class="st0" d="M217.3,101.2c0-5.1,0-9.6,0-14.5c3.1,0,6.1-0.3,9,0.1c3.9,0.5,6.4,3.8,6.2,7.6c-0.2,3.7-2.8,6.5-6.7,6.8
		C223.1,101.3,220.3,101.2,217.3,101.2z"/>
	<path class="st0" d="M217.4,111c3,0,5.7-0.1,8.4,0c4,0.3,6.8,3.6,6.7,7.6c-0.1,3.9-3,6.7-7,6.9c-2.1,0.1-4.2,0-6.3,0
		c-0.5,0-1.1-0.1-1.9-0.1C217.4,120.7,217.4,116,217.4,111z"/>
	<path class="st0" d="M217.3,52.6c0-4.8,0-9.4,0-14.3c3.3,0,6.7-0.3,10,0.1c3.2,0.4,5.4,4,5.2,7.5c-0.2,3.4-2.7,6.4-6.2,6.7
		C223.4,52.8,220.5,52.6,217.3,52.6z"/>
	<path class="st0" d="M217.3,149.9c0-4.9,0-9.5,0-14.3c3.3,0,6.7-0.3,10,0.1c3.2,0.4,5.4,4,5.2,7.4c-0.2,3.4-2.8,6.2-6.2,6.7
		c-0.9,0.1-1.8,0.1-2.6,0.1C221.7,149.9,219.6,149.9,217.3,149.9z"/>
</g>
</svg>
